<?xml version="1.0" encoding="UTF-8"?>
<svg width="334px" height="108px" viewBox="0 0 334 108" version="1.1" xmlns="http://www.w3.org/2000/svg" xmlns:xlink="http://www.w3.org/1999/xlink">
    <title>Pool</title>
    <g id="Page-1" stroke="none" stroke-width="1" fill="none" fill-rule="evenodd">
        <g id="Pool" fill="#FFFFFF" fill-rule="nonzero">
            <path d="M131.5,2.00000027 L188.5,2.00000027 C195.068,0.532000267 203.367,-0.73999973 209.5,3.00000027 L209.5,3.00000027 L211.5,3.00000027 C218.666667,5.16666693 223.333333,4.8333336 225.5,2.00000027 C228.166667,5.3333336 233.833333,5.66666693 242.5,3.00000027 C259.666667,0.8333336 274.333333,1.16666693 286.5,4.00000027 L288.5,3.00000027 L291.5,4.00000027 L293.5,3.00000027 L296.5,4.00000027 L310,4.50000027 L305.5,6.00000027 C304.352,3.93300027 301.342,4.51500027 299.5,5.00000027 L299.5,5.00000027 L281.5,5.00000027 L278.5,6.00000027 C276.367,2.91900027 271.426,4.15100027 268.5,5.00000027 L268.5,5.00000027 L264.5,6.00000027 C262.549,3.18100027 257.171,3.73700027 254.5,5.00000027 C251.195,6.56200027 249.465,7.13300027 245.5,6.00000027 L245.5,6.00000027 L241.5,5.00000027 L239.5,5.00000027 C235.833333,4.00000027 233.5,4.3333336 232.5,6.00000027 C230.833333,3.66666693 227.166667,3.3333336 221.5,5.00000027 L219.5,5.00000027 L211.5,6.00000027 C210.666667,4.50000027 208.666667,4.16666693 205.5,5.00000027 C202.666667,8.50000027 196.666667,8.8333336 187.5,6.00000027 L185.5,6.00000027 L157.5,6.00000027 C152.333333,4.50000027 149,4.8333336 147.5,7.00000027 C144.833333,3.66666693 139.166667,3.3333336 130.5,6.00000027 L128,7.50000027 L127.5,9.00000027 L126,9.50000027 L125,22.5000003 L126,24.5000003 C122.421,27.1250003 123.964,33.0170003 125,36.5000003 L125,36.5000003 L125,38.5000003 C126.666667,50.1666669 127,63.1666669 126,77.5000003 C123.958667,86.8753336 125.125333,93.0420003 129.5,96.0000003 C136.055333,99.7780003 146.055333,100.111334 159.5,97.0000003 C165.666667,95.1666669 169.666667,95.5000003 171.5,98.0000003 C172.5,96.3333336 174.833333,96.0000003 178.5,97.0000003 L199.5,97.0000003 L283.5,97.0000003 L312.5,97.0000003 C317.586,98.0600003 324.861,98.4900003 327,92.5000003 L327,92.5000003 L328,81.5000003 L327,76.5000003 L327,74.5000003 C330.685,68.5720003 328.5,61.8770003 328,55.5000003 C326.868,41.0510003 328.183,25.8430003 330,11.5000003 L330,11.5000003 L326.5,5.00000027 L323,3.50000027 L325.5,3.00000027 C331.855333,6.3113336 334.022,13.8113336 332,25.5000003 C333.708667,45.7920003 334.042,67.4586669 333,90.5000003 C332.083333,95.9166669 329.583333,99.7500003 325.5,102 C320.833333,104 314.5,104.333334 306.5,103 L256.5,103 L254.5,103 L161.5,103 L137.5,103 C131.683,103.84 125.225,103.372 122.37,97.5050003 C118.848,90.2670003 119.683,81.1390003 121,73.5000003 L121,73.5000003 L121,11.5000003 L126.5,4.00000027 L131.5,2.00000027 Z" id="pool-extern"></path>
            <path d="M137.5,11.0000003 C164.904,11.5960003 191.237333,13.2626669 216.5,16.0000003 C228.361333,17.8053336 241.361333,18.4720003 255.5,18.0000003 C256.333333,19.5000003 258.333333,19.8333336 261.5,19.0000003 L284,20.5000003 C288.927,19.7710003 299.89,18.3500003 303.547,23.0780003 C306.918,27.4380003 306.129,33.4640003 305,38.5000003 L305,38.5000003 L305,79.5000003 C302.703,83.4670003 297.529,83.5760003 293.5,83.0000003 L293.5,83.0000003 L263.5,85.0000003 L169.5,92.0000003 L169.5,91.0000003 L205.5,88.0000003 L302,79.5000003 L302,39.5000003 C304.166667,31.3333336 303.333333,26.1666669 299.5,24.0000003 C283.682667,24.4840003 269.349333,23.4840003 256.5,21.0000003 L254.5,21.0000003 C214.554667,19.9453336 175.888,17.6120003 138.5,14.0000003 C133.5,15.3333336 131.666667,19.8333336 133,27.5000003 C135,36.5000003 134.666667,43.1666669 132,47.5000003 L132,49.5000003 L132,76.5000003 C130.964,82.6980003 131.087,90.8440003 138,93.5000003 L138,93.5000003 L130,86.5000003 L130,35.5000003 C128.204,26.9430003 127.425,14.6440003 137.5,11.0000003 L137.5,11.0000003 Z" id="pool-intern"></path>
            <polygon id="Path" points="153.5 92.0000003 165 92.5000003 153.5 93.0000003"></polygon>
            <path d="M56.429343,40.0631865 C79.639343,38.9511865 105.932343,42.8821865 120.929343,62.5631865 L120.929343,62.5631865 L118.429343,63.0631865 C103.217343,47.4951865 80.573343,44.5441865 59.804343,44.8131865 C40.532343,45.0611865 19.475343,56.3431865 5.92934296,69.5631865 L5.92934296,69.5631865 L10.429343,70.0631865 L13.429343,69.0631865 L13.929343,72.5631865 C9.94034296,75.7631865 4.22734296,75.6921865 -0.570657042,75.0631865 L-0.570657042,75.0631865 L-1.07065704,72.5631865 L3.42934296,61.0631865 L4.92934296,61.5631865 L5.42934296,68.0631865 L13.929343,61.5631865 L15.429343,59.0631865 C27.098343,49.1411865 41.547343,43.1941865 56.429343,40.0631865 L56.429343,40.0631865 Z" id="Shape-path" transform="translate(59.929343, 57.649155) rotate(-36.000000) translate(-59.929343, -57.649155) "></path>
        </g>
    </g>
</svg>